<svg xmlns="http://www.w3.org/2000/svg" viewBox="0 0 128 128">
  <defs>
    <linearGradient id="grad" x1="0%" y1="0%" x2="100%" y2="100%">
      <stop offset="0%" style="stop-color:#a855f7;stop-opacity:1" />
      <stop offset="100%" style="stop-color:#ec4899;stop-opacity:1" />
    </linearGradient>
  </defs>
  <rect width="128" height="128" rx="24" fill="url(#grad)"/>
  <g transform="translate(32, 32)">
    <!-- Portfolio/Code icon -->
    <path d="M32 8 L8 8 L8 56 L32 56 L32 8 Z" fill="white" opacity="0.9"/>
    <path d="M56 8 L40 8 L40 40 L56 40 L56 8 Z" fill="white" opacity="0.9"/>
    <path d="M56 48 L40 48 L40 56 L56 56 L56 48 Z" fill="white" opacity="0.7"/>
    <path d="M32 24 L16 24 L16 32 L32 32 L32 24 Z" fill="url(#grad)"/>
    <path d="M48 16 L44 16 L44 20 L48 20 L48 16 Z" fill="url(#grad)"/>
    <path d="M48 24 L44 24 L44 28 L48 28 L48 24 Z" fill="url(#grad)"/>
  </g>
</svg>